<?xml version="1.0" encoding="UTF-8"?>
<svg width="165px" height="32px" viewBox="0 0 165 32" version="1.1" xmlns="http://www.w3.org/2000/svg" xmlns:xlink="http://www.w3.org/1999/xlink">
    <!-- Generator: Sketch 48.2 (47327) - http://www.bohemiancoding.com/sketch -->
    <title>Artboard</title>
    <desc>Created with Sketch.</desc>
    <defs></defs>
    <g id="Page-1" stroke="none" stroke-width="1" fill="none" fill-rule="evenodd">
        <g id="Artboard" fill-rule="nonzero">
            <path d="M10.1,16.7 C10.4058402,19.7289603 12.9556382,22.0342652 16,22.0342652 C19.0443618,22.0342652 21.5941598,19.7289603 21.9,16.7 C21.9150212,16.500282 21.9150212,16.299718 21.9,16.1 C21.9,12.8249514 19.2450486,10.17 15.97,10.17 C12.6949514,10.17 10.04,12.8249514 10.04,16.1 C10.0249788,16.299718 10.0249788,16.500282 10.04,16.7 M0,16 C-1.082166e-15,7.163444 7.163444,1.623249e-15 16,0 C24.836556,-1.623249e-15 32,7.163444 32,16 C32,24.836556 24.836556,32 16,32 C11.7565362,32 7.68687356,30.3142906 4.6862915,27.3137085 C1.68570945,24.3131264 5.19674441e-16,20.2434638 0,16" id="Shape" fill="#FF2400"></path>
            <path d="M51.69,15.89 C51.69,20.76 48.32,22.89 45.14,22.89 C41.57,22.89 38.83,20.28 38.83,16.12 C38.83,11.72 41.71,9.12 45.35,9.12 C48.99,9.12 51.69,11.87 51.69,15.89 M41.25,16 C41.25,18.88 42.91,21.06 45.25,21.06 C47.59,21.06 49.25,18.91 49.25,15.94 C49.25,13.71 48.14,10.89 45.31,10.89 C42.48,10.89 41.31,13.5 41.31,16" id="Shape" fill="#FFFFFF"></path>
            <path d="M65.72,19 C65.72,20.36 65.72,21.56 65.82,22.6 L63.7,22.6 L63.57,20.45 L63.51,20.45 C62.609717,21.9931933 60.9463519,22.9300311 59.16,22.9 C57.09,22.9 54.62,21.75 54.62,17.14 L54.62,9.42 L57,9.42 L57,16.71 C57,19.21 57.76,20.9 59.94,20.9 C61.3323206,20.8712648 62.5725801,20.0129265 63.09,18.72 C63.2374777,18.3302516 63.3120503,17.9167124 63.31,17.5 L63.31,9.42 L65.7,9.42 L65.7,19 L65.72,19 Z" id="Shape" fill="#FFFFFF"></path>
            <path d="M78,20.14 C78.9504241,20.7313482 80.0410489,21.0592259 81.16,21.09 C82.9,21.09 83.71,20.22 83.71,19.09 C83.71,17.96 83.03,17.32 81.26,16.67 C78.9,15.83 77.79,14.52 77.79,12.95 C77.79,10.83 79.5,9.09 82.33,9.09 C83.4597413,9.07707741 84.5732292,9.35975855 85.56,9.91 L84.96,11.65 C84.1538231,11.1460761 83.2206857,10.8824388 82.27,10.89 C80.86,10.89 80.07,11.7 80.07,12.68 C80.07,13.66 80.86,14.26 82.57,14.91 C84.85,15.78 86.02,16.91 86.02,18.91 C86.02,21.22 84.22,22.91 81.1,22.91 C79.8083741,22.9240294 78.5346422,22.6073177 77.4,21.99 L78,20.14 Z" id="Shape" fill="#FFFFFF"></path>
            <path d="M101.36,20.14 C102.310424,20.7313482 103.401049,21.0592259 104.52,21.09 C106.26,21.09 107.07,20.22 107.07,19.09 C107.07,17.96 106.39,17.32 104.62,16.67 C102.26,15.83 101.15,14.52 101.15,12.95 C101.15,10.83 102.86,9.09 105.69,9.09 C106.819741,9.07707741 107.933229,9.35975855 108.92,9.91 L108.32,11.65 C107.513823,11.1460761 106.580686,10.8824388 105.63,10.89 C104.22,10.89 103.43,11.7 103.43,12.68 C103.43,13.66 104.22,14.26 105.93,14.91 C108.21,15.78 109.38,16.91 109.38,18.91 C109.38,21.22 107.59,22.91 104.46,22.91 C103.168374,22.9240294 101.894642,22.6073177 100.76,21.99 L101.36,20.14 Z" id="Shape" fill="#FFFFFF"></path>
            <path d="M134.39,13 C134.39,11.64 134.39,10.53 134.28,9.44 L136.37,9.44 L136.48,11.56 L136.56,11.56 C137.361482,10.0307501 138.964125,9.09167106 140.69,9.14 C142.370979,9.12119696 143.872851,10.1870419 144.41,11.78 L144.47,11.78 C144.829022,11.1123156 145.326848,10.5292455 145.93,10.07 C146.761478,9.42939139 147.791114,9.10033245 148.84,9.14 C150.58,9.14 153.17,10.28 153.17,14.85 L153.17,22.6 L150.83,22.6 L150.83,15.13 C150.83,12.6 149.9,11.08 147.98,11.08 C146.671782,11.1383853 145.540291,12.0099931 145.15,13.26 C145.024595,13.6442343 144.960476,14.0458191 144.96,14.45 L144.96,22.59 L142.63,22.59 L142.63,14.7 C142.63,12.61 141.7,11.09 139.88,11.09 C138.471003,11.1610499 137.264139,12.1225178 136.88,13.48 C136.752448,13.8565723 136.691535,14.252502 136.7,14.65 L136.7,22.59 L134.36,22.59 L134.36,13 L134.39,13 Z" id="Shape" fill="#FFFFFF"></path>
            <path d="M156.7,20.14 C157.646714,20.7314225 158.734155,21.0593807 159.85,21.09 C161.59,21.09 162.41,20.22 162.41,19.09 C162.41,17.96 161.73,17.32 159.96,16.67 C157.6,15.83 156.48,14.52 156.48,12.95 C156.48,10.83 158.19,9.09 161.02,9.09 C162.152683,9.07901858 163.268909,9.36152034 164.26,9.91 L163.66,11.65 C162.851613,11.1510845 161.919948,10.8878632 160.97,10.89 C159.55,10.89 158.76,11.7 158.76,12.68 C158.76,13.66 159.55,14.26 161.26,14.91 C163.55,15.78 164.72,16.91 164.72,18.91 C164.72,21.22 162.92,22.91 159.8,22.91 C158.508061,22.9267198 157.233659,22.6098415 156.1,21.99 L156.7,20.14 Z" id="Shape" fill="#FFFFFF"></path>
            <path d="M97.11,9.39 L94.51,17.1 C94.18,18.05 93.91,19.16 93.67,19.84 L93.61,19.84 C93.39,19.16 93.06,18.02 92.77,17.15 L89.89,9.39 L87.28,9.39 L92.14,21.53 C92.2278101,21.7303321 92.2851127,21.9426888 92.31,22.16 C92.2815397,22.3630655 92.2172054,22.5594544 92.12,22.74 C91.6670332,23.7688303 90.9825817,24.6791508 90.12,25.4 C89.4943605,25.9215514 88.7747767,26.3186802 88,26.57 L88.64,28.57 C89.7307763,28.3105983 90.7342673,27.7691959 91.55,27 C93.18,25.59 94.35,23.26 96.06,18.75 L99.65,9.35 L97.11,9.35 L97.11,9.39 Z" id="Shape" fill="#FFFFFF"></path>
            <path d="M131.34,16.43 C131.391948,16.0589038 131.418676,15.6847123 131.42,15.31 C131.42,12.89 130.28,9.1 125.97,9.1 C122.13,9.1 119.78,12.23 119.78,16.21 C119.78,20.19 122.21,22.89 126.27,22.89 C127.769281,22.8997151 129.251883,22.5751824 130.61,21.94 L130.01,20.11 C128.575338,20.8032443 126.971948,21.070476 125.39,20.88 C124.933069,20.787871 124.49406,20.6223984 124.09,20.39 C122.866881,19.473484 122.130134,18.047878 122.09,16.52 L122.09,16.43 L131.34,16.43 Z M125.78,10.83 C128.48,10.83 129.14,13.19 129.11,14.73 L122.11,14.73 C122.31,13.19 123.37,10.83 125.79,10.83 L125.78,10.83 Z" id="Shape" fill="#FFFFFF"></path>
            <path d="M75,20.16 C74.566042,20.4814386 74.0560808,20.6847339 73.52,20.75 C72.69,20.75 72.13,20.16 72.13,18.56 L72.13,11.15 L75.54,11.15 L75.54,9.44 L72.16,9.44 L72.16,4.76 L69.66,6.54 L69.66,18.42 C69.5477663,19.6486357 69.9050684,20.8741822 70.66,21.85 C71.0222772,22.2484712 71.4851368,22.5420762 72,22.7 C73.2500884,23.1027978 74.6193299,22.8387567 75.63,22 L75,20.16 Z" id="Shape" fill="#FFFFFF"></path>
            <path d="M117.76,20.16 C117.326042,20.4814386 116.816081,20.6847339 116.28,20.75 C115.45,20.75 114.89,20.16 114.89,18.56 L114.89,11.15 L118.3,11.15 L118.3,9.44 L114.89,9.44 L114.89,4.76 L112.39,6.54 L112.39,18.42 C112.273698,19.6490254 112.631428,20.8760399 113.39,21.85 C113.763302,22.2545796 114.240726,22.5486456 114.77,22.7 C116.008302,23.0809514 117.355253,22.8100562 118.35,21.98 L117.76,20.16 Z" id="Shape" fill="#FFFFFF"></path>
        </g>
    </g>
</svg>